<?xml version="1.0" encoding="UTF-8"?>
<svg xmlns="http://www.w3.org/2000/svg" xmlns:xlink="http://www.w3.org/1999/xlink" width="15px" height="15px" viewBox="0 0 15 15" version="1.1">
<g id="surface1">
<path style=" stroke:none;fill-rule:nonzero;fill:rgb(86.666667%,28.235295%,7.843138%);fill-opacity:1;" d="M 14.980469 7.480469 C 14.980469 11.613281 11.628906 14.960938 7.496094 14.960938 C 3.367188 14.960938 0.015625 11.613281 0.015625 7.480469 C 0.015625 3.347656 3.367188 0 7.496094 0 C 11.628906 0 14.980469 3.347656 14.980469 7.480469 Z M 14.980469 7.480469 "/>
<path style=" stroke:none;fill-rule:nonzero;fill:rgb(100%,100%,100%);fill-opacity:1;" d="M 2.410156 6.480469 C 1.859375 6.480469 1.410156 6.929688 1.410156 7.480469 C 1.410156 8.03125 1.859375 8.480469 2.410156 8.480469 C 2.960938 8.480469 3.410156 8.03125 3.410156 7.480469 C 3.410156 6.929688 2.960938 6.480469 2.410156 6.480469 Z M 9.542969 11.023438 C 9.0625 11.296875 8.898438 11.910156 9.175781 12.386719 C 9.453125 12.863281 10.0625 13.027344 10.539062 12.75 C 11.019531 12.476562 11.183594 11.867188 10.90625 11.386719 C 10.628906 10.910156 10.019531 10.746094 9.542969 11.023438 Z M 4.578125 7.480469 C 4.578125 6.496094 5.070312 5.621094 5.820312 5.09375 L 5.089844 3.871094 C 4.214844 4.457031 3.566406 5.347656 3.296875 6.394531 C 3.609375 6.652344 3.8125 7.042969 3.8125 7.480469 C 3.8125 7.921875 3.609375 8.3125 3.296875 8.570312 C 3.566406 9.613281 4.214844 10.507812 5.089844 11.09375 L 5.820312 9.867188 C 5.070312 9.339844 4.578125 8.46875 4.578125 7.480469 Z M 7.496094 4.5625 C 9.023438 4.5625 10.273438 5.730469 10.402344 7.222656 L 11.828125 7.203125 C 11.757812 6.101562 11.277344 5.113281 10.539062 4.386719 C 10.15625 4.53125 9.71875 4.507812 9.339844 4.289062 C 8.960938 4.070312 8.722656 3.703125 8.65625 3.300781 C 8.277344 3.195312 7.890625 3.140625 7.496094 3.140625 C 6.832031 3.140625 6.171875 3.296875 5.574219 3.589844 L 6.269531 4.835938 C 6.652344 4.65625 7.074219 4.5625 7.496094 4.5625 Z M 7.496094 10.398438 C 7.074219 10.398438 6.652344 10.308594 6.269531 10.128906 L 5.574219 11.371094 C 6.171875 11.667969 6.832031 11.820312 7.496094 11.820312 C 7.890625 11.820312 8.277344 11.765625 8.65625 11.664062 C 8.722656 11.261719 8.960938 10.890625 9.339844 10.671875 C 9.71875 10.453125 10.15625 10.433594 10.539062 10.574219 C 11.277344 9.847656 11.757812 8.859375 11.828125 7.761719 L 10.402344 7.738281 C 10.273438 9.230469 9.023438 10.398438 7.496094 10.398438 Z M 9.542969 3.941406 C 10.019531 4.214844 10.628906 4.050781 10.90625 3.574219 C 11.179688 3.097656 11.019531 2.488281 10.539062 2.210938 C 10.0625 1.933594 9.453125 2.097656 9.175781 2.578125 C 8.898438 3.054688 9.0625 3.664062 9.542969 3.941406 Z M 9.542969 3.941406 "/>
</g>
</svg>
